<mxfile host="app.diagrams.net" agent="Mozilla/5.0 (Windows NT 10.0; Win64; x64) AppleWebKit/537.36 (KHTML, like Gecko) Chrome/131.0.0.0 Safari/537.36" version="25.0.3">
  <diagram name="Page-1" id="UtlBrwN5WzguzTkzwGGJ">
    <mxGraphModel dx="1434" dy="907" grid="1" gridSize="10" guides="1" tooltips="1" connect="1" arrows="1" fold="1" page="1" pageScale="1" pageWidth="850" pageHeight="1100" math="0" shadow="0">
      <root>
        <mxCell id="0" />
        <mxCell id="1" parent="0" />
        <mxCell id="lws-XhjZTefnXEqJVR7u-6" value="" style="ellipse;whiteSpace=wrap;html=1;aspect=fixed;strokeColor=default;fillColor=#000000;" vertex="1" parent="1">
          <mxGeometry x="430" y="20" width="20" height="20" as="geometry" />
        </mxCell>
        <mxCell id="lws-XhjZTefnXEqJVR7u-11" value="" style="ellipse;whiteSpace=wrap;html=1;" vertex="1" parent="1">
          <mxGeometry x="220" y="70" width="460" height="60" as="geometry" />
        </mxCell>
        <mxCell id="lws-XhjZTefnXEqJVR7u-12" value="&lt;font style=&quot;font-size: 20px;&quot;&gt;Chack availability room&lt;/font&gt;" style="text;html=1;align=center;verticalAlign=middle;whiteSpace=wrap;rounded=0;" vertex="1" parent="1">
          <mxGeometry x="290" y="85" width="290" height="30" as="geometry" />
        </mxCell>
        <mxCell id="lws-XhjZTefnXEqJVR7u-13" value="" style="endArrow=classic;html=1;rounded=0;" edge="1" parent="1">
          <mxGeometry width="50" height="50" relative="1" as="geometry">
            <mxPoint x="440" y="130" as="sourcePoint" />
            <mxPoint x="440" y="170" as="targetPoint" />
          </mxGeometry>
        </mxCell>
        <mxCell id="lws-XhjZTefnXEqJVR7u-14" value="" style="rhombus;whiteSpace=wrap;html=1;direction=south;" vertex="1" parent="1">
          <mxGeometry x="400" y="170" width="80" height="60" as="geometry" />
        </mxCell>
        <mxCell id="lws-XhjZTefnXEqJVR7u-16" style="edgeStyle=orthogonalEdgeStyle;rounded=0;orthogonalLoop=1;jettySize=auto;html=1;exitX=1;exitY=0.5;exitDx=0;exitDy=0;" edge="1" parent="1" source="lws-XhjZTefnXEqJVR7u-14" target="lws-XhjZTefnXEqJVR7u-14">
          <mxGeometry relative="1" as="geometry" />
        </mxCell>
        <mxCell id="lws-XhjZTefnXEqJVR7u-19" value="" style="endArrow=classic;html=1;rounded=0;" edge="1" parent="1">
          <mxGeometry width="50" height="50" relative="1" as="geometry">
            <mxPoint x="480" y="200" as="sourcePoint" />
            <mxPoint x="640" y="200" as="targetPoint" />
          </mxGeometry>
        </mxCell>
        <mxCell id="lws-XhjZTefnXEqJVR7u-21" value="" style="endArrow=classic;html=1;rounded=0;" edge="1" parent="1">
          <mxGeometry width="50" height="50" relative="1" as="geometry">
            <mxPoint x="439.5" y="230" as="sourcePoint" />
            <mxPoint x="439.5" y="270" as="targetPoint" />
          </mxGeometry>
        </mxCell>
        <mxCell id="lws-XhjZTefnXEqJVR7u-22" value="&lt;font style=&quot;font-size: 17px;&quot;&gt;room not available&amp;nbsp;&lt;/font&gt;" style="text;html=1;align=center;verticalAlign=middle;whiteSpace=wrap;rounded=0;" vertex="1" parent="1">
          <mxGeometry x="480" y="160" width="160" height="30" as="geometry" />
        </mxCell>
        <mxCell id="lws-XhjZTefnXEqJVR7u-26" value="" style="ellipse;whiteSpace=wrap;html=1;" vertex="1" parent="1">
          <mxGeometry x="640" y="165" width="190" height="70" as="geometry" />
        </mxCell>
        <mxCell id="lws-XhjZTefnXEqJVR7u-27" value="&lt;font style=&quot;font-size: 19px;&quot;&gt;Alert &lt;font style=&quot;&quot;&gt;&quot;room not Available&quot;&lt;/font&gt;&lt;/font&gt;" style="text;html=1;align=center;verticalAlign=middle;whiteSpace=wrap;rounded=0;" vertex="1" parent="1">
          <mxGeometry x="660" y="175" width="150" height="50" as="geometry" />
        </mxCell>
        <mxCell id="lws-XhjZTefnXEqJVR7u-28" value="" style="ellipse;whiteSpace=wrap;html=1;" vertex="1" parent="1">
          <mxGeometry x="320" y="270" width="240" height="50" as="geometry" />
        </mxCell>
        <mxCell id="lws-XhjZTefnXEqJVR7u-29" value="&lt;font style=&quot;font-size: 20px;&quot;&gt;Valid Student&lt;/font&gt;" style="text;html=1;align=center;verticalAlign=middle;whiteSpace=wrap;rounded=0;" vertex="1" parent="1">
          <mxGeometry x="350" y="280" width="170" height="30" as="geometry" />
        </mxCell>
        <mxCell id="lws-XhjZTefnXEqJVR7u-30" value="" style="endArrow=classic;html=1;rounded=0;" edge="1" parent="1">
          <mxGeometry width="50" height="50" relative="1" as="geometry">
            <mxPoint x="439.5" y="320" as="sourcePoint" />
            <mxPoint x="439.5" y="360" as="targetPoint" />
          </mxGeometry>
        </mxCell>
        <mxCell id="lws-XhjZTefnXEqJVR7u-33" style="edgeStyle=orthogonalEdgeStyle;rounded=0;orthogonalLoop=1;jettySize=auto;html=1;exitX=0;exitY=0.5;exitDx=0;exitDy=0;" edge="1" parent="1" source="lws-XhjZTefnXEqJVR7u-31">
          <mxGeometry relative="1" as="geometry">
            <mxPoint x="240" y="390" as="targetPoint" />
          </mxGeometry>
        </mxCell>
        <mxCell id="lws-XhjZTefnXEqJVR7u-40" style="edgeStyle=orthogonalEdgeStyle;rounded=0;orthogonalLoop=1;jettySize=auto;html=1;exitX=0.5;exitY=1;exitDx=0;exitDy=0;" edge="1" parent="1" source="lws-XhjZTefnXEqJVR7u-31">
          <mxGeometry relative="1" as="geometry">
            <mxPoint x="440" y="460" as="targetPoint" />
          </mxGeometry>
        </mxCell>
        <mxCell id="lws-XhjZTefnXEqJVR7u-31" value="" style="rhombus;whiteSpace=wrap;html=1;" vertex="1" parent="1">
          <mxGeometry x="400" y="360" width="80" height="60" as="geometry" />
        </mxCell>
        <mxCell id="lws-XhjZTefnXEqJVR7u-34" value="&lt;font style=&quot;font-size: 17px;&quot;&gt;Not-valid Student&lt;/font&gt;" style="text;html=1;align=center;verticalAlign=middle;whiteSpace=wrap;rounded=0;" vertex="1" parent="1">
          <mxGeometry x="240" y="350" width="160" height="30" as="geometry" />
        </mxCell>
        <mxCell id="lws-XhjZTefnXEqJVR7u-36" value="" style="ellipse;whiteSpace=wrap;html=1;" vertex="1" parent="1">
          <mxGeometry x="40" y="352.5" width="200" height="75" as="geometry" />
        </mxCell>
        <mxCell id="lws-XhjZTefnXEqJVR7u-37" value="&lt;font style=&quot;font-size: 19px;&quot;&gt;Alert &quot;not-valid Student&quot;&lt;/font&gt;" style="text;html=1;align=center;verticalAlign=middle;whiteSpace=wrap;rounded=0;" vertex="1" parent="1">
          <mxGeometry x="70" y="360" width="140" height="60" as="geometry" />
        </mxCell>
        <mxCell id="lws-XhjZTefnXEqJVR7u-39" style="edgeStyle=orthogonalEdgeStyle;rounded=0;orthogonalLoop=1;jettySize=auto;html=1;exitX=0.5;exitY=1;exitDx=0;exitDy=0;entryX=0.478;entryY=-0.017;entryDx=0;entryDy=0;entryPerimeter=0;" edge="1" parent="1" source="lws-XhjZTefnXEqJVR7u-6" target="lws-XhjZTefnXEqJVR7u-11">
          <mxGeometry relative="1" as="geometry" />
        </mxCell>
        <mxCell id="lws-XhjZTefnXEqJVR7u-44" style="edgeStyle=orthogonalEdgeStyle;rounded=0;orthogonalLoop=1;jettySize=auto;html=1;exitX=0.5;exitY=1;exitDx=0;exitDy=0;" edge="1" parent="1" source="lws-XhjZTefnXEqJVR7u-41">
          <mxGeometry relative="1" as="geometry">
            <mxPoint x="440" y="580" as="targetPoint" />
          </mxGeometry>
        </mxCell>
        <mxCell id="lws-XhjZTefnXEqJVR7u-41" value="" style="ellipse;whiteSpace=wrap;html=1;" vertex="1" parent="1">
          <mxGeometry x="320" y="460" width="240" height="80" as="geometry" />
        </mxCell>
        <mxCell id="lws-XhjZTefnXEqJVR7u-42" value="&lt;font style=&quot;font-size: 20px;&quot;&gt;Check valid document&lt;/font&gt;" style="text;html=1;align=center;verticalAlign=middle;whiteSpace=wrap;rounded=0;" vertex="1" parent="1">
          <mxGeometry x="337.5" y="480" width="210" height="40" as="geometry" />
        </mxCell>
        <mxCell id="lws-XhjZTefnXEqJVR7u-46" style="edgeStyle=orthogonalEdgeStyle;rounded=0;orthogonalLoop=1;jettySize=auto;html=1;exitX=1;exitY=0.5;exitDx=0;exitDy=0;" edge="1" parent="1" source="lws-XhjZTefnXEqJVR7u-45">
          <mxGeometry relative="1" as="geometry">
            <mxPoint x="640" y="610" as="targetPoint" />
          </mxGeometry>
        </mxCell>
        <mxCell id="lws-XhjZTefnXEqJVR7u-52" style="edgeStyle=orthogonalEdgeStyle;rounded=0;orthogonalLoop=1;jettySize=auto;html=1;exitX=0.5;exitY=1;exitDx=0;exitDy=0;" edge="1" parent="1" source="lws-XhjZTefnXEqJVR7u-45">
          <mxGeometry relative="1" as="geometry">
            <mxPoint x="440" y="680" as="targetPoint" />
          </mxGeometry>
        </mxCell>
        <mxCell id="lws-XhjZTefnXEqJVR7u-45" value="" style="rhombus;whiteSpace=wrap;html=1;" vertex="1" parent="1">
          <mxGeometry x="400" y="580" width="80" height="60" as="geometry" />
        </mxCell>
        <mxCell id="lws-XhjZTefnXEqJVR7u-47" value="&lt;font style=&quot;font-size: 16px;&quot;&gt;Not-valid Document&lt;/font&gt;" style="text;html=1;align=center;verticalAlign=middle;whiteSpace=wrap;rounded=0;" vertex="1" parent="1">
          <mxGeometry x="480" y="570" width="150" height="30" as="geometry" />
        </mxCell>
        <mxCell id="lws-XhjZTefnXEqJVR7u-48" value="" style="ellipse;whiteSpace=wrap;html=1;" vertex="1" parent="1">
          <mxGeometry x="640" y="570" width="190" height="80" as="geometry" />
        </mxCell>
        <mxCell id="lws-XhjZTefnXEqJVR7u-49" value="&lt;span style=&quot;font-size: 16px;&quot;&gt;Alert &quot;Not-valid Document&quot;&lt;/span&gt;" style="text;html=1;align=center;verticalAlign=middle;whiteSpace=wrap;rounded=0;" vertex="1" parent="1">
          <mxGeometry x="660" y="585" width="140" height="50" as="geometry" />
        </mxCell>
        <mxCell id="lws-XhjZTefnXEqJVR7u-55" style="edgeStyle=orthogonalEdgeStyle;rounded=0;orthogonalLoop=1;jettySize=auto;html=1;exitX=0.5;exitY=1;exitDx=0;exitDy=0;" edge="1" parent="1" source="lws-XhjZTefnXEqJVR7u-53">
          <mxGeometry relative="1" as="geometry">
            <mxPoint x="440" y="780" as="targetPoint" />
          </mxGeometry>
        </mxCell>
        <mxCell id="lws-XhjZTefnXEqJVR7u-53" value="" style="ellipse;whiteSpace=wrap;html=1;" vertex="1" parent="1">
          <mxGeometry x="360" y="680" width="160" height="60" as="geometry" />
        </mxCell>
        <mxCell id="lws-XhjZTefnXEqJVR7u-54" value="&lt;font style=&quot;font-size: 19px;&quot;&gt;Give Room&lt;/font&gt;" style="text;html=1;align=center;verticalAlign=middle;whiteSpace=wrap;rounded=0;" vertex="1" parent="1">
          <mxGeometry x="370" y="695" width="140" height="30" as="geometry" />
        </mxCell>
        <mxCell id="lws-XhjZTefnXEqJVR7u-57" value="" style="endArrow=none;html=1;rounded=0;" edge="1" parent="1">
          <mxGeometry width="50" height="50" relative="1" as="geometry">
            <mxPoint x="200" y="780" as="sourcePoint" />
            <mxPoint x="200" y="780" as="targetPoint" />
          </mxGeometry>
        </mxCell>
        <mxCell id="lws-XhjZTefnXEqJVR7u-58" value="" style="endArrow=none;html=1;rounded=0;" edge="1" parent="1">
          <mxGeometry width="50" height="50" relative="1" as="geometry">
            <mxPoint x="680" y="780" as="sourcePoint" />
            <mxPoint x="200" y="780" as="targetPoint" />
          </mxGeometry>
        </mxCell>
        <mxCell id="lws-XhjZTefnXEqJVR7u-59" value="" style="endArrow=classic;html=1;rounded=0;" edge="1" parent="1">
          <mxGeometry width="50" height="50" relative="1" as="geometry">
            <mxPoint x="200" y="780" as="sourcePoint" />
            <mxPoint x="200" y="830" as="targetPoint" />
          </mxGeometry>
        </mxCell>
        <mxCell id="lws-XhjZTefnXEqJVR7u-60" value="" style="endArrow=classic;html=1;rounded=0;" edge="1" parent="1">
          <mxGeometry width="50" height="50" relative="1" as="geometry">
            <mxPoint x="680" y="780" as="sourcePoint" />
            <mxPoint x="680" y="830" as="targetPoint" />
            <Array as="points">
              <mxPoint x="680" y="780" />
            </Array>
          </mxGeometry>
        </mxCell>
        <mxCell id="lws-XhjZTefnXEqJVR7u-66" style="edgeStyle=orthogonalEdgeStyle;rounded=0;orthogonalLoop=1;jettySize=auto;html=1;exitX=0.5;exitY=1;exitDx=0;exitDy=0;" edge="1" parent="1" source="lws-XhjZTefnXEqJVR7u-61">
          <mxGeometry relative="1" as="geometry">
            <mxPoint x="200" y="950" as="targetPoint" />
          </mxGeometry>
        </mxCell>
        <mxCell id="lws-XhjZTefnXEqJVR7u-61" value="" style="ellipse;whiteSpace=wrap;html=1;" vertex="1" parent="1">
          <mxGeometry x="100" y="830" width="200" height="80" as="geometry" />
        </mxCell>
        <mxCell id="lws-XhjZTefnXEqJVR7u-62" value="&lt;font style=&quot;font-size: 18px;&quot;&gt;Update room availablity data&lt;/font&gt;" style="text;html=1;align=center;verticalAlign=middle;whiteSpace=wrap;rounded=0;" vertex="1" parent="1">
          <mxGeometry x="120" y="850" width="160" height="40" as="geometry" />
        </mxCell>
        <mxCell id="lws-XhjZTefnXEqJVR7u-63" value="" style="ellipse;whiteSpace=wrap;html=1;" vertex="1" parent="1">
          <mxGeometry x="580" y="830" width="200" height="80" as="geometry" />
        </mxCell>
        <mxCell id="lws-XhjZTefnXEqJVR7u-64" value="&lt;span style=&quot;font-size: 18px;&quot;&gt;Message student for room issue&amp;nbsp;&lt;/span&gt;" style="text;html=1;align=center;verticalAlign=middle;whiteSpace=wrap;rounded=0;" vertex="1" parent="1">
          <mxGeometry x="600" y="850" width="160" height="40" as="geometry" />
        </mxCell>
        <mxCell id="lws-XhjZTefnXEqJVR7u-68" style="edgeStyle=orthogonalEdgeStyle;rounded=0;orthogonalLoop=1;jettySize=auto;html=1;exitX=0.5;exitY=1;exitDx=0;exitDy=0;" edge="1" parent="1">
          <mxGeometry relative="1" as="geometry">
            <mxPoint x="679.5" y="950" as="targetPoint" />
            <mxPoint x="679.5" y="910" as="sourcePoint" />
          </mxGeometry>
        </mxCell>
        <mxCell id="lws-XhjZTefnXEqJVR7u-70" value="" style="endArrow=none;html=1;rounded=0;" edge="1" parent="1">
          <mxGeometry width="50" height="50" relative="1" as="geometry">
            <mxPoint x="680" y="950" as="sourcePoint" />
            <mxPoint x="200" y="950" as="targetPoint" />
          </mxGeometry>
        </mxCell>
        <mxCell id="lws-XhjZTefnXEqJVR7u-71" value="" style="endArrow=classic;html=1;rounded=0;" edge="1" parent="1">
          <mxGeometry width="50" height="50" relative="1" as="geometry">
            <mxPoint x="440" y="950" as="sourcePoint" />
            <mxPoint x="440" y="1000" as="targetPoint" />
          </mxGeometry>
        </mxCell>
        <mxCell id="lws-XhjZTefnXEqJVR7u-73" value="" style="ellipse;whiteSpace=wrap;html=1;aspect=fixed;" vertex="1" parent="1">
          <mxGeometry x="415" y="1000" width="50" height="50" as="geometry" />
        </mxCell>
        <mxCell id="lws-XhjZTefnXEqJVR7u-74" value="" style="ellipse;whiteSpace=wrap;html=1;aspect=fixed;fillColor=#000000;" vertex="1" parent="1">
          <mxGeometry x="427.5" y="1012.5" width="25" height="25" as="geometry" />
        </mxCell>
      </root>
    </mxGraphModel>
  </diagram>
</mxfile>
